<svg  viewBox="0 0 16 17" fill="none" xmlns="http://www.w3.org/2000/svg">
<path d="M6.58669 7.08667C6.39019 7.26977 6.23259 7.49057 6.12327 7.7359C6.01396 7.98123 5.95518 8.24607 5.95045 8.51461C5.94571 8.78315 5.99511 9.04989 6.0957 9.29893C6.19629 9.54796 6.346 9.77419 6.53592 9.96411C6.72584 10.154 6.95206 10.3037 7.2011 10.4043C7.45013 10.5049 7.71688 10.5543 7.98542 10.5496C8.25396 10.5448 8.51879 10.4861 8.76412 10.3768C9.00946 10.2674 9.23026 10.1098 9.41336 9.91334" stroke="#6B7280" stroke-linecap="round" stroke-linejoin="round"/>
<path d="M7.15332 3.88668C7.43419 3.85168 7.71694 3.83387 7.99999 3.83334C12.6667 3.83334 14.6667 8.50001 14.6667 8.50001C14.3686 9.13809 13.9948 9.73797 13.5533 10.2867" stroke="#6B7280" stroke-linecap="round" stroke-linejoin="round"/>
<path d="M4.40665 4.90668C3.08081 5.80976 2.01989 7.05018 1.33331 8.50001C1.33331 8.50001 3.33331 13.1667 7.99998 13.1667C9.27725 13.1701 10.5272 12.7967 11.5933 12.0933" stroke="#6B7280" stroke-linecap="round" stroke-linejoin="round"/>
<path d="M1.33331 1.83334L14.6666 15.1667" stroke="#6B7280" stroke-linecap="round" stroke-linejoin="round"/>
</svg>
