<svg viewBox="0 0 16 16" fill="none" xmlns="http://www.w3.org/2000/svg">
<path d="M13.3333 6.66671C13.3333 10.6667 7.99996 14.6667 7.99996 14.6667C7.99996 14.6667 2.66663 10.6667 2.66663 6.66671C2.66663 5.25222 3.22853 3.89567 4.22872 2.89547C5.22892 1.89528 6.58547 1.33337 7.99996 1.33337C9.41445 1.33337 10.771 1.89528 11.7712 2.89547C12.7714 3.89567 13.3333 5.25222 13.3333 6.66671Z" stroke="#6B7280" stroke-linecap="round" stroke-linejoin="round"/>
<path d="M8 8.66663C9.10457 8.66663 10 7.7712 10 6.66663C10 5.56206 9.10457 4.66663 8 4.66663C6.89543 4.66663 6 5.56206 6 6.66663C6 7.7712 6.89543 8.66663 8 8.66663Z" stroke="#6B7280" stroke-linecap="round" stroke-linejoin="round"/>
</svg>
