<svg viewBox="0 0 16 16" fill="none" xmlns="http://www.w3.org/2000/svg">
<path d="M2.66663 1.33325V14.6666L3.99996 13.9999L5.33329 14.6666L6.66663 13.9999L7.99996 14.6666L9.33329 13.9999L10.6666 14.6666L12 13.9999L13.3333 14.6666V1.33325L12 1.99992L10.6666 1.33325L9.33329 1.99992L7.99996 1.33325L6.66663 1.99992L5.33329 1.33325L3.99996 1.99992L2.66663 1.33325Z" stroke="#6B7280" stroke-linecap="round" stroke-linejoin="round"/>
<path d="M10.6667 5.33325H6.66671C6.31309 5.33325 5.97395 5.47373 5.7239 5.72378C5.47385 5.97383 5.33337 6.31296 5.33337 6.66659C5.33337 7.02021 5.47385 7.35935 5.7239 7.60939C5.97395 7.85944 6.31309 7.99992 6.66671 7.99992H9.33337C9.687 7.99992 10.0261 8.14039 10.2762 8.39044C10.5262 8.64049 10.6667 8.97963 10.6667 9.33325C10.6667 9.68687 10.5262 10.026 10.2762 10.2761C10.0261 10.5261 9.687 10.6666 9.33337 10.6666H5.33337" stroke="#6B7280" stroke-linecap="round" stroke-linejoin="round"/>
<path d="M8 11.3334V4.66675" stroke="#6B7280" stroke-linecap="round" stroke-linejoin="round"/>
</svg>
