<svg viewBox="0 0 16 16" fill="none" xmlns="http://www.w3.org/2000/svg">
<path d="M3.33337 12H2.00004C1.60004 12 1.33337 11.7333 1.33337 11.3333V4.66667C1.33337 4.26667 1.60004 4 2.00004 4H8.66671C9.06671 4 9.33337 4.26667 9.33337 4.66667V12" stroke="#6B7280" stroke-linecap="round" stroke-linejoin="round"/>
<path d="M9.33337 6H12L14.6667 8.66667V11.3333C14.6667 11.7333 14.4 12 14 12H12.6667" stroke="#6B7280" stroke-linecap="round" stroke-linejoin="round"/>
<path d="M4.66671 13.3333C5.40309 13.3333 6.00004 12.7363 6.00004 12C6.00004 11.2636 5.40309 10.6666 4.66671 10.6666C3.93033 10.6666 3.33337 11.2636 3.33337 12C3.33337 12.7363 3.93033 13.3333 4.66671 13.3333Z" stroke="#6B7280" stroke-linecap="round" stroke-linejoin="round"/>
<path d="M10 12H6" stroke="#6B7280" stroke-linecap="round" stroke-linejoin="round"/>
<path d="M11.3333 13.3333C12.0697 13.3333 12.6667 12.7363 12.6667 12C12.6667 11.2636 12.0697 10.6666 11.3333 10.6666C10.597 10.6666 10 11.2636 10 12C10 12.7363 10.597 13.3333 11.3333 13.3333Z" stroke="#6B7280" stroke-linecap="round" stroke-linejoin="round"/>
</svg>
