<svg viewBox="0 0 16 17" fill="none" xmlns="http://www.w3.org/2000/svg">
<path d="M10.6667 14.5V13.1667C10.6667 12.4594 10.3858 11.7811 9.88566 11.281C9.38556 10.781 8.70728 10.5 8.00004 10.5H4.00004C3.2928 10.5 2.61452 10.781 2.11442 11.281C1.61433 11.7811 1.33337 12.4594 1.33337 13.1667V14.5" stroke="#6B7280" stroke-linecap="round" stroke-linejoin="round"/>
<path d="M6.00004 7.83333C7.4728 7.83333 8.66671 6.63943 8.66671 5.16667C8.66671 3.69391 7.4728 2.5 6.00004 2.5C4.52728 2.5 3.33337 3.69391 3.33337 5.16667C3.33337 6.63943 4.52728 7.83333 6.00004 7.83333Z" stroke="#6B7280" stroke-linecap="round" stroke-linejoin="round"/>
<path d="M14.6666 14.5V13.1667C14.6662 12.5758 14.4695 12.0019 14.1075 11.5349C13.7455 11.0679 13.2387 10.7344 12.6666 10.5867" stroke="#6B7280" stroke-linecap="round" stroke-linejoin="round"/>
<path d="M10.6666 2.58667C11.2402 2.73354 11.7487 3.06714 12.1117 3.53488C12.4748 4.00262 12.6719 4.57789 12.6719 5.17C12.6719 5.76212 12.4748 6.33739 12.1117 6.80513C11.7487 7.27287 11.2402 7.60647 10.6666 7.75334" stroke="#6B7280" stroke-linecap="round" stroke-linejoin="round"/>
</svg>
