<svg width="282" height="145" viewBox="0 0 282 145" fill="none" xmlns="http://www.w3.org/2000/svg">
<g clip-path="url(#clip0_1_36470)">
<path d="M37.1329 8.2566C36.4567 8.24829 35.7865 8.38455 35.1673 8.65626C34.8943 7.18993 34.1031 5.87066 32.9381 4.93928C31.7732 4.00789 30.3121 3.52652 28.8216 3.58303C28.5851 3.58303 28.3486 3.58303 28.1283 3.58303L27.9489 3.38728L27.4269 2.86527C25.8569 1.32843 23.7473 0.467773 21.5503 0.467773C19.3533 0.467773 17.2437 1.32843 15.6736 2.86527C14.6498 3.90432 13.9256 5.2006 13.5775 6.61718C12.8946 6.22425 12.1222 6.01359 11.3345 6.00546C10.249 6.01684 9.20066 6.4018 8.36579 7.09554C7.53092 7.78929 6.96052 8.74946 6.75061 9.81446H5.11934C-0.590089 9.81446 -0.883717 18.1339 4.16505 19.0719C4.87586 19.4833 5.68473 19.6947 6.50592 19.6836C7.25227 19.6908 7.98895 19.5144 8.65103 19.1698H36.6272C37.7173 19.2094 38.782 18.8355 39.6079 18.123C40.4338 17.4106 40.9599 16.4122 41.0806 15.3281C42.5487 12.5631 41.2437 8.2566 37.1493 8.2566H37.1329Z" fill="url(#paint0_linear_1_36470)"/>
<path d="M12.1833 75.9216C21.4082 64.0052 34.2054 52.5456 50.8362 50.5636C61.4394 49.2994 72.0426 52.0807 82.0586 55.2616C92.0746 58.4426 102.091 62.0966 112.751 62.7002C131.152 63.7361 145.156 51.1916 157.187 40.8902C169.829 30.0667 182.757 16.3559 201.696 14.0232C226.98 10.9075 240.03 32.0732 245.887 49.6501C247.412 54.2676 248.676 58.9677 249.671 63.7279C249.671 63.7279 266.025 30.2869 281.416 75.9624C191.674 75.9624 101.93 75.9488 12.1833 75.9216Z" fill="url(#paint1_linear_1_36470)"/>
<path d="M119.561 144.5C141.942 142.543 168.254 138.791 184.624 129.762C198.49 122.086 195.227 108.702 178.344 103.099C164.967 98.6452 145.254 89.3225 164.021 81.7942L159.405 80.5137C159.405 80.5137 129.512 89.086 146.395 98.164C153.606 102.046 162.904 105.627 167.227 110.749C180.913 126.98 108.379 126.075 95.141 125.749C87.8689 125.652 80.6095 125.107 73.4044 124.117L119.561 144.5Z" fill="url(#paint2_linear_1_36470)"/>
<path d="M208.963 101.035C211.859 101.035 214.207 100.469 214.207 99.7706C214.207 99.0724 211.859 98.5063 208.963 98.5063C206.066 98.5063 203.718 99.0724 203.718 99.7706C203.718 100.469 206.066 101.035 208.963 101.035Z" fill="url(#paint3_linear_1_36470)"/>
<path d="M216.41 85.7091C216.043 82.0061 213.612 82.4466 213.653 82.4466C214.07 81.9238 214.361 81.3117 214.502 80.658C214.644 80.0043 214.632 79.3268 214.469 78.6783C213.718 76.68 211.671 77.6751 211.002 77.9116C210.015 78.2542 209.656 78.923 209.591 78.7273C209.361 78.1056 209.089 77.5005 208.775 76.9166C207.527 74.5186 205.79 73.9558 204.828 74.8775C202.487 77.1123 204.762 81.4025 204.624 81.3047C203.213 80.538 201.843 81.9082 201.541 83.7516C201.321 85.1381 201.541 87.4545 203.074 87.8787C203.321 87.974 203.585 88.016 203.85 88.002C204.114 87.9879 204.372 87.9181 204.607 87.7971C204.56 88.2357 204.604 88.6794 204.736 89.1003C204.868 89.5213 205.085 89.9106 205.374 90.244C206.28 91.0596 207.748 88.9961 207.748 88.9961C210.195 92.7643 213.457 92.0547 214.575 91.3696C216.312 90.3256 216.589 87.5279 216.41 85.7091Z" fill="#D8DDE1"/>
<path d="M206.622 98.8817C206.94 98.1395 207.437 87.5281 207.201 87.4629C206.498 87.433 205.808 87.2598 205.174 86.9541C204.54 86.6484 203.975 86.2164 203.514 85.6848C204.453 86.2736 205.502 86.6649 206.597 86.8348C205.45 84.7432 204.999 82.3407 205.309 79.9753C205.514 81.5746 205.816 83.1599 206.214 84.7223C206.736 86.5167 207.462 87.3405 207.56 87.2589C208.822 85.9351 209.554 84.1933 209.615 82.3651C209.925 83.1051 209.968 83.9296 209.737 84.6979C209.297 86.3291 207.764 87.316 208.025 87.4384C209.917 88.254 211.654 88.4906 212.176 87.9604C212.217 87.9604 211.687 88.6292 210.08 88.4498C209.383 88.3318 208.706 88.1206 208.065 87.8217C208.286 88.0419 208.424 94.7954 211.149 98.9796L206.597 98.898L206.622 98.8817Z" fill="#C7CED5"/>
</g>
<g clip-path="url(#clip1_1_36470)">
<path opacity="0.3" fill-rule="evenodd" clip-rule="evenodd" d="M89.565 127.739L63.4647 116.32L85.4868 108.164H109.14L89.565 127.739Z" fill="url(#paint4_linear_1_36470)"/>
<path fill-rule="evenodd" clip-rule="evenodd" d="M93.6434 0.5L103.118 4.79186C103.118 4.79186 102.758 72.031 109.951 108.155L93.6434 113.873V0.5Z" fill="url(#paint5_linear_1_36470)"/>
<path fill-rule="evenodd" clip-rule="evenodd" d="M100.984 100.823V111.426L104.247 109.795L100.984 100.823Z" fill="#B4BFF3"/>
<path fill-rule="evenodd" clip-rule="evenodd" d="M98.5375 2.94702L100.169 8.65645L98.5375 11.1034L100.984 18.444L100.169 11.919L101.8 8.65645V4.57829L98.5375 2.94702Z" fill="#B4BFF3"/>
<path fill-rule="evenodd" clip-rule="evenodd" d="M86.296 3.35472L93.5772 0.5V113.873L84.5775 109.894L86.296 3.35472Z" fill="url(#paint6_linear_1_36470)"/>
<path fill-rule="evenodd" clip-rule="evenodd" d="M60.1328 21.3141V71.6296L70.736 72.2748V18.4438L60.1328 21.3141Z" fill="#9CA9E8"/>
<path fill-rule="evenodd" clip-rule="evenodd" d="M93.6434 70.6445H105.062L105.878 77.1696H93.6434V70.6445Z" fill="url(#paint7_linear_1_36470)"/>
<path d="M93.6435 69.0132H85.4872V75.5382H93.6435V69.0132Z" fill="url(#paint8_linear_1_36470)"/>
<path fill-rule="evenodd" clip-rule="evenodd" d="M70.8056 18.4438L122.124 33.8699L133.609 50.7323L119.254 69.7472L70.8056 72.2756V18.4438Z" fill="url(#paint9_linear_1_36470)"/>
<path fill-rule="evenodd" clip-rule="evenodd" d="M87.4714 56.3114L92.2078 56.3701L92.3954 53.1989L94.7134 53.287L94.9263 49.6983L92.6115 49.5425L93.229 39.0958L88.5244 38.3813L76.7793 48.226L76.5273 52.5986L87.668 53.022L87.4714 56.3114ZM82.2375 48.841L88.2136 43.6724L87.8874 49.2187L82.2375 48.841ZM96.7223 51.6313C96.8349 52.5137 97.118 53.3659 97.5559 54.1402C98.0469 54.9696 98.7577 55.6471 99.6097 56.0977C100.632 56.5767 101.752 56.8086 102.88 56.7747C105.199 56.7983 106.815 56.1842 107.786 54.9468C108.742 53.7307 109.295 51.7952 109.457 49.1273C109.53 47.9649 109.467 46.798 109.269 45.6503C109.183 45.1062 109.033 44.5743 108.822 44.0655C108.605 43.5688 108.317 43.1058 107.969 42.6903C107.551 42.1978 107.042 41.7897 106.471 41.4881C105.685 41.0901 104.836 40.832 103.961 40.7255C101.73 40.387 99.9743 40.7369 98.741 41.8005C97.4866 42.8853 96.7574 45.001 96.5714 48.1314C96.4927 49.3001 96.5433 50.4738 96.7223 51.6313ZM101.99 44.4774C102.125 44.1651 102.361 43.907 102.66 43.7436C102.958 43.5802 103.303 43.521 103.639 43.5753C103.983 43.6185 104.307 43.759 104.573 43.9802C104.84 44.2014 105.037 44.4942 105.143 44.824C105.496 46.1764 105.587 47.5841 105.41 48.9707C105.378 49.9941 105.241 51.0115 105.003 52.0073C104.879 52.5408 104.606 53.0281 104.216 53.4118C104.01 53.5951 103.761 53.7237 103.493 53.786C103.224 53.8483 102.945 53.8423 102.679 53.7684C102.414 53.6946 102.171 53.5553 101.973 53.3633C101.776 53.1713 101.629 52.9328 101.548 52.6696C101.169 51.3198 101.066 49.9076 101.245 48.5172C101.24 47.136 101.493 45.766 101.99 44.4774ZM116.773 56.6809L119.639 56.7168L119.791 54.2397L121.211 54.2944L121.384 51.478L119.966 51.3825L120.466 43.2262L117.621 42.7939L110.572 50.5596L110.371 53.8816L116.929 54.1304L116.773 56.6809ZM113.755 50.9633L117.375 46.8925L117.112 51.1901L113.755 50.9633Z" fill="#FEFEFE"/>
<path d="M98.945 33.1253C99.6207 33.1253 100.168 32.395 100.168 31.4941C100.168 30.5931 99.6207 29.8628 98.945 29.8628C98.2693 29.8628 97.7216 30.5931 97.7216 31.4941C97.7216 32.395 98.2693 33.1253 98.945 33.1253Z" fill="#9CA9E8"/>
<path d="M98.945 68.1976C99.6207 68.1976 100.168 67.4672 100.168 66.5663C100.168 65.6654 99.6207 64.9351 98.945 64.9351C98.2693 64.9351 97.7216 65.6654 97.7216 66.5663C97.7216 67.4672 98.2693 68.1976 98.945 68.1976Z" fill="#9CA9E8"/>
</g>
<defs>
<linearGradient id="paint0_linear_1_36470" x1="21.1139" y1="19.6836" x2="21.1139" y2="0.499934" gradientUnits="userSpaceOnUse">
<stop stop-color="white" stop-opacity="0"/>
<stop offset="0.06" stop-color="#FCFCFC" stop-opacity="0.1"/>
<stop offset="0.19" stop-color="#F5F5F5" stop-opacity="0.34"/>
<stop offset="0.33" stop-color="#F0F0F0" stop-opacity="0.54"/>
<stop offset="0.47" stop-color="#EBEBEB" stop-opacity="0.71"/>
<stop offset="0.6" stop-color="#E8E8E8" stop-opacity="0.84"/>
<stop offset="0.74" stop-color="#E5E5E5" stop-opacity="0.93"/>
<stop offset="0.87" stop-color="#E4E4E4" stop-opacity="0.98"/>
<stop offset="1" stop-color="#E3E3E3"/>
</linearGradient>
<linearGradient id="paint1_linear_1_36470" x1="146.795" y1="75.9624" x2="146.795" y2="13.7133" gradientUnits="userSpaceOnUse">
<stop stop-color="white" stop-opacity="0"/>
<stop offset="0.02" stop-color="#FEFEFE" stop-opacity="0.04"/>
<stop offset="0.12" stop-color="#F8F8F8" stop-opacity="0.26"/>
<stop offset="0.23" stop-color="#F2F2F2" stop-opacity="0.46"/>
<stop offset="0.34" stop-color="#EDEDED" stop-opacity="0.63"/>
<stop offset="0.45" stop-color="#EAEAEA" stop-opacity="0.76"/>
<stop offset="0.57" stop-color="#E7E7E7" stop-opacity="0.87"/>
<stop offset="0.69" stop-color="#E5E5E5" stop-opacity="0.94"/>
<stop offset="0.83" stop-color="#E3E3E3" stop-opacity="0.99"/>
<stop offset="1" stop-color="#E3E3E3"/>
</linearGradient>
<linearGradient id="paint2_linear_1_36470" x1="133.345" y1="144.5" x2="133.345" y2="80.5137" gradientUnits="userSpaceOnUse">
<stop stop-color="white" stop-opacity="0"/>
<stop offset="0.02" stop-color="#FEFEFE" stop-opacity="0.04"/>
<stop offset="0.12" stop-color="#F8F8F8" stop-opacity="0.26"/>
<stop offset="0.23" stop-color="#F2F2F2" stop-opacity="0.46"/>
<stop offset="0.34" stop-color="#EDEDED" stop-opacity="0.63"/>
<stop offset="0.45" stop-color="#EAEAEA" stop-opacity="0.76"/>
<stop offset="0.57" stop-color="#E7E7E7" stop-opacity="0.87"/>
<stop offset="0.69" stop-color="#E5E5E5" stop-opacity="0.94"/>
<stop offset="0.83" stop-color="#E3E3E3" stop-opacity="0.99"/>
<stop offset="1" stop-color="#E3E3E3"/>
</linearGradient>
<linearGradient id="paint3_linear_1_36470" x1="208.963" y1="101.043" x2="208.963" y2="98.5063" gradientUnits="userSpaceOnUse">
<stop stop-color="white" stop-opacity="0"/>
<stop offset="1" stop-color="#D6D6D6"/>
</linearGradient>
<linearGradient id="paint4_linear_1_36470" x1="92.1832" y1="108.164" x2="80.4217" y2="127.739" gradientUnits="userSpaceOnUse">
<stop stop-color="#9CA9E8"/>
<stop offset="0.741" stop-color="white"/>
<stop offset="1" stop-color="white" stop-opacity="0.812"/>
</linearGradient>
<linearGradient id="paint5_linear_1_36470" x1="101.8" y1="113.873" x2="101.8" y2="0.5" gradientUnits="userSpaceOnUse">
<stop stop-color="#C4CEFF"/>
<stop offset="1" stop-color="#CDD5FB"/>
</linearGradient>
<linearGradient id="paint6_linear_1_36470" x1="89.0676" y1="113.873" x2="89.0676" y2="0.5" gradientUnits="userSpaceOnUse">
<stop stop-color="#A5B3F1"/>
<stop offset="1" stop-color="#BAC5F7"/>
</linearGradient>
<linearGradient id="paint7_linear_1_36470" x1="99.7607" y1="70.6445" x2="99.7607" y2="77.1696" gradientUnits="userSpaceOnUse">
<stop stop-color="#ADB8EB"/>
<stop offset="1" stop-color="#CED5F6" stop-opacity="0"/>
</linearGradient>
<linearGradient id="paint8_linear_1_36470" x1="89.5653" y1="69.0132" x2="89.5653" y2="75.5382" gradientUnits="userSpaceOnUse">
<stop stop-color="#919DDD"/>
<stop offset="1" stop-color="#ABB7F3" stop-opacity="0"/>
</linearGradient>
<linearGradient id="paint9_linear_1_36470" x1="133.609" y1="54.3643" x2="70.8056" y2="36.3551" gradientUnits="userSpaceOnUse">
<stop stop-color="#A6B4F1"/>
<stop offset="1" stop-color="#D1D8FA"/>
</linearGradient>
<clipPath id="clip0_1_36470">
<rect width="280.831" height="144" fill="white" transform="translate(0.584717 0.5)"/>
</clipPath>
<clipPath id="clip1_1_36470">
<rect width="73.4836" height="127.239" fill="white" transform="translate(60.1255 0.5)"/>
</clipPath>
</defs>
</svg>
