<svg width="254" height="144" viewBox="0 0 254 144" fill="none" xmlns="http://www.w3.org/2000/svg">
<g clip-path="url(#clip0_1_36350)">
<path d="M40.5784 108.089C40.5784 108.089 93.0279 22.9432 204.249 108.089H40.5784Z" fill="url(#paint0_linear_1_36350)"/>
<path d="M4.67358 118.47C4.67358 118.47 56.5952 35.535 111.614 116.529L4.67358 118.47Z" fill="url(#paint1_linear_1_36350)"/>
<path d="M0.667908 133.525C0.667908 133.525 145.489 51.646 253.332 133.525H0.667908Z" fill="url(#paint2_linear_1_36350)"/>
<path d="M209.011 55.7161C207.175 55.723 205.358 55.3479 203.675 54.6148C201.992 53.8817 200.48 52.8065 199.235 51.4575C197.99 50.1086 197.039 48.5154 196.442 46.7792C195.846 45.043 195.617 43.2017 195.771 41.3724C195.924 39.543 196.457 37.7656 197.334 36.1531C198.211 34.5405 199.415 33.1281 200.867 32.0055C202.32 30.8829 203.99 30.0748 205.772 29.6324C207.553 29.1899 209.407 29.123 211.216 29.4357C208.874 27.9296 206.169 27.0822 203.386 26.9824C200.603 26.8826 197.844 27.5341 195.4 28.8685C192.956 30.2029 190.916 32.1709 189.495 34.5659C188.074 36.9608 187.324 39.6943 187.324 42.4791C187.324 45.264 188.074 47.9974 189.495 50.3924C190.916 52.7873 192.956 54.7553 195.4 56.0897C197.844 57.4241 200.603 58.0756 203.386 57.9758C206.169 57.8761 208.874 57.0286 211.216 55.5226C210.488 55.649 209.75 55.7138 209.011 55.7161Z" fill="url(#paint3_linear_1_36350)"/>
<path d="M177.001 89.7324C177.001 89.7324 197.768 90.096 206.953 117.649C206.953 117.649 199.363 125.678 188.578 124.875C188.578 124.863 191.575 102.899 177.001 89.7324Z" fill="url(#paint4_linear_1_36350)"/>
<path d="M177.001 89.7322C177.001 89.7322 157.031 88.137 150.644 119.684L188.578 124.874C188.578 124.874 192.572 102.101 177.001 89.7322Z" fill="#D8DDE1"/>
<path d="M162.245 118.189L163.828 107.872C163.831 106.38 164.425 104.949 165.481 103.893C166.536 102.836 167.966 102.241 169.459 102.236C170.951 102.241 172.382 102.836 173.437 103.893C174.492 104.949 175.086 106.38 175.089 107.872L173.329 119.995L162.245 118.189Z" fill="url(#paint5_linear_1_36350)"/>
<path d="M66.155 124.558C67.5932 124.558 68.759 124.277 68.759 123.93C68.759 123.584 67.5932 123.303 66.155 123.303C64.7169 123.303 63.551 123.584 63.551 123.93C63.551 124.277 64.7169 124.558 66.155 124.558Z" fill="url(#paint6_linear_1_36350)"/>
<path d="M66.0435 121.121C66.9509 120.29 67.6766 119.279 68.1752 118.154C68.6738 117.029 68.9344 115.813 68.9407 114.582C68.9407 110.418 66.1197 100.77 66.0083 100.77C65.8968 100.77 63.3632 110.74 63.3632 114.599C63.4389 117.027 64.3934 119.344 66.0493 121.121" fill="#D8DDE1"/>
<path d="M66.2898 120.3H66.0787L65.7913 123.444L66.5186 123.655L66.2898 120.3Z" fill="#C7CED5"/>
<path d="M66.0023 104.981C66.0023 104.981 64.2957 110.582 64.2957 112.558C64.3048 113.158 64.4334 113.751 64.6741 114.301C64.9148 114.85 65.2626 115.347 65.6974 115.761C65.6974 115.761 67.8439 114.529 67.5741 112.136C67.1889 109.723 66.6641 107.334 66.0023 104.981Z" fill="#C7CED5"/>
</g>
<g clip-path="url(#clip1_1_36350)">
<path opacity="0.2" fill-rule="evenodd" clip-rule="evenodd" d="M110.927 144L78.0842 136.962L90.9869 126.406L103.303 128.165L116.792 127.578L110.927 144Z" fill="url(#paint7_linear_1_36350)"/>
<path opacity="0.4" fill-rule="evenodd" clip-rule="evenodd" d="M103.89 136.962L92.7467 136.376L99.1981 129.338L103.303 128.165L106.236 129.338L103.89 136.962Z" fill="url(#paint8_linear_1_36350)"/>
<path fill-rule="evenodd" clip-rule="evenodd" d="M104.489 95.8555C104.489 95.8555 104.689 118.594 117.379 128.124H110.386C110.386 128.124 105.189 120.283 103.888 95.9551L104.489 95.8555Z" fill="#AFBBF4"/>
<path fill-rule="evenodd" clip-rule="evenodd" d="M101.531 95.9141C101.531 95.9141 101.331 118.635 88.6404 128.159H95.6343C95.6343 128.159 100.831 120.324 102.132 96.0138L101.531 95.9141Z" fill="#AFBBF4"/>
<path fill-rule="evenodd" clip-rule="evenodd" d="M102.603 104.846V91.1929H103.409V104.846C103.409 115.497 106.228 129.32 106.228 129.32H99.7844C99.7844 129.32 102.603 115.497 102.603 104.846Z" fill="#AFBBF4"/>
<path fill-rule="evenodd" clip-rule="evenodd" d="M100.062 129.32C100.062 129.32 102.694 115.497 102.694 104.846V91.1929H103.068V129.32H100.063H100.062Z" fill="#94A2E5"/>
<path d="M106.822 89.4568H99.1979V103.532H106.822V89.4568Z" fill="url(#paint9_linear_1_36350)"/>
<path fill-rule="evenodd" clip-rule="evenodd" d="M99.4669 103.321H106.536L108.577 106.494V106.899H97.426V106.494L99.4669 103.321Z" fill="url(#paint10_linear_1_36350)"/>
<path d="M107.408 106.465H98.611V107.638H107.408V106.465Z" fill="#AFBBF4"/>
<path d="M149.606 22.4331L157.001 20.6091L150.047 29.6117L157.361 28.1103" stroke="#CCCCCC" stroke-width="1.17297" stroke-linecap="round"/>
<path d="M161.294 10.1637L165.959 9.0083L161.572 14.7149L166.187 13.7589" stroke="#E2E2E2" stroke-width="1.17297" stroke-linecap="round"/>
<path d="M174.434 1.93545L177.975 0.991211L174.645 5.64201L178.147 4.86201" stroke="#E9E9E9" stroke-width="1.17297" stroke-linecap="round"/>
<path fill-rule="evenodd" clip-rule="evenodd" d="M127.628 62.8479C142.29 77.5042 150.179 93.3803 145.255 98.3068C140.332 103.233 124.457 95.3334 109.799 80.6771C95.1402 66.0208 87.2473 50.1445 92.1708 45.2181C97.0944 40.2916 112.969 48.1916 127.628 62.8479Z" fill="url(#paint11_linear_1_36350)"/>
<path fill-rule="evenodd" clip-rule="evenodd" d="M110.147 80.3253C96.3936 66.5722 88.5733 51.7517 91.6061 45.7871C86.5476 53.7809 92.7908 70.179 106.544 83.9321C120.298 97.6852 136.695 103.926 144.685 98.87C138.721 101.902 123.9 94.0784 110.147 80.3253Z" fill="url(#paint12_linear_1_36350)"/>
<path fill-rule="evenodd" clip-rule="evenodd" d="M104.04 81.0759L99.9761 84.6946C99.5676 85.103 99.2434 85.588 99.0223 86.1217C98.8011 86.6554 98.6872 87.2275 98.6871 87.8053C98.6871 88.383 98.8008 88.9551 99.0218 89.4889C99.2428 90.0227 99.5668 90.5077 99.9753 90.9163C100.384 91.3249 100.869 91.6491 101.402 91.8702C101.936 92.0914 102.508 92.2053 103.086 92.2054C103.664 92.2054 104.236 92.0917 104.77 91.8707C105.303 91.6496 105.788 91.3257 106.197 90.9172L109.817 86.8529C108.817 85.9556 107.823 85.023 106.849 84.0436C105.875 83.0642 104.938 82.073 104.04 81.0759Z" fill="#AFBBF4"/>
<path fill-rule="evenodd" clip-rule="evenodd" d="M118.984 76.3782L114.016 71.4106L115.033 81.246L117.966 85.3514L118.984 76.3782Z" fill="url(#paint13_linear_1_36350)"/>
<path fill-rule="evenodd" clip-rule="evenodd" d="M119.085 76.3723L158.732 31.7466L114.108 71.393C114.379 72.6305 114.767 73.9443 115.62 74.7947C116.473 75.6451 117.773 76.0028 119.085 76.3723Z" fill="url(#paint14_linear_1_36350)"/>
<path d="M119.725 65.9973C119.725 65.9973 120.702 69.9561 124.417 70.6892" stroke="#ABB4E4" stroke-width="0.586486"/>
<path d="M123.83 62.4785C123.83 62.4785 124.726 65.9329 127.935 66.5839" stroke="#ABB4E4" stroke-width="0.586486"/>
<path d="M128.522 58.9595C128.653 59.6894 129.004 60.3619 129.528 60.8862C130.052 61.4105 130.725 61.7615 131.455 61.8919" stroke="#ABB4E4" stroke-width="0.586486"/>
<path d="M132.041 55.4407C132.041 55.4407 132.888 58.6018 134.973 58.3731" stroke="#ABB4E4" stroke-width="0.586486"/>
<path d="M135.56 52.5081C135.56 52.5081 135.543 54.4962 137.906 54.854" stroke="#ABB4E4" stroke-width="0.586486"/>
<path d="M138.492 49.5757C138.556 50.1761 138.824 50.7365 139.251 51.1634C139.677 51.5903 140.238 51.8579 140.838 51.9216" stroke="#ABB4E4" stroke-width="0.586486"/>
<path d="M142.011 46.6433C142.063 47.0921 142.265 47.5101 142.584 47.8295C142.904 48.1489 143.322 48.351 143.77 48.4028" stroke="#ABB4E4" stroke-width="0.586486"/>
<path fill-rule="evenodd" clip-rule="evenodd" d="M104.292 87.4392C104.292 87.6434 104.231 87.8429 104.118 88.0127C104.004 88.1824 103.843 88.3147 103.654 88.3928C103.466 88.4709 103.258 88.4914 103.058 88.4515C102.858 88.4117 102.674 88.3134 102.529 88.1691C102.385 88.0247 102.287 87.8408 102.247 87.6405C102.207 87.4403 102.228 87.2328 102.306 87.0442C102.384 86.8555 102.516 86.6943 102.686 86.5809C102.856 86.4675 103.055 86.407 103.259 86.407C103.533 86.4071 103.796 86.5159 103.989 86.7095C104.183 86.903 104.291 87.1655 104.292 87.4392Z" fill="#8A99E4"/>
</g>
<defs>
<linearGradient id="paint0_linear_1_36350" x1="122.411" y1="108.089" x2="122.411" y2="70.2492" gradientUnits="userSpaceOnUse">
<stop stop-color="white" stop-opacity="0"/>
<stop offset="0.13" stop-color="#FEFEFE" stop-opacity="0.02"/>
<stop offset="0.26" stop-color="#FDFDFD" stop-opacity="0.07"/>
<stop offset="0.4" stop-color="#FAFAFA" stop-opacity="0.16"/>
<stop offset="0.53" stop-color="#F7F7F7" stop-opacity="0.29"/>
<stop offset="0.67" stop-color="#F2F2F2" stop-opacity="0.46"/>
<stop offset="0.81" stop-color="#EDEDED" stop-opacity="0.66"/>
<stop offset="0.94" stop-color="#E6E6E6" stop-opacity="0.9"/>
<stop offset="1" stop-color="#E3E3E3"/>
</linearGradient>
<linearGradient id="paint1_linear_1_36350" x1="58.1435" y1="118.47" x2="58.1435" y2="81.0288" gradientUnits="userSpaceOnUse">
<stop stop-color="white" stop-opacity="0"/>
<stop offset="0.13" stop-color="#FEFEFE" stop-opacity="0.02"/>
<stop offset="0.26" stop-color="#FDFDFD" stop-opacity="0.07"/>
<stop offset="0.4" stop-color="#FAFAFA" stop-opacity="0.16"/>
<stop offset="0.53" stop-color="#F7F7F7" stop-opacity="0.29"/>
<stop offset="0.67" stop-color="#F2F2F2" stop-opacity="0.46"/>
<stop offset="0.81" stop-color="#EDEDED" stop-opacity="0.66"/>
<stop offset="0.94" stop-color="#E6E6E6" stop-opacity="0.9"/>
<stop offset="1" stop-color="#E3E3E3"/>
</linearGradient>
<linearGradient id="paint2_linear_1_36350" x1="127.003" y1="133.525" x2="127.003" y2="97.1339" gradientUnits="userSpaceOnUse">
<stop stop-color="white" stop-opacity="0"/>
<stop offset="0.06" stop-color="#FCFCFC" stop-opacity="0.1"/>
<stop offset="0.19" stop-color="#F5F5F5" stop-opacity="0.34"/>
<stop offset="0.33" stop-color="#F0F0F0" stop-opacity="0.54"/>
<stop offset="0.47" stop-color="#EBEBEB" stop-opacity="0.71"/>
<stop offset="0.6" stop-color="#E8E8E8" stop-opacity="0.84"/>
<stop offset="0.74" stop-color="#E5E5E5" stop-opacity="0.93"/>
<stop offset="0.87" stop-color="#E4E4E4" stop-opacity="0.98"/>
<stop offset="1" stop-color="#E3E3E3"/>
</linearGradient>
<linearGradient id="paint3_linear_1_36350" x1="211.222" y1="42.4791" x2="187.346" y2="42.4791" gradientUnits="userSpaceOnUse">
<stop stop-color="white" stop-opacity="0"/>
<stop offset="0.1" stop-color="#FBFBFB" stop-opacity="0.13"/>
<stop offset="0.34" stop-color="#F3F3F3" stop-opacity="0.43"/>
<stop offset="0.57" stop-color="#ECECEC" stop-opacity="0.68"/>
<stop offset="0.76" stop-color="#E7E7E7" stop-opacity="0.85"/>
<stop offset="0.91" stop-color="#E4E4E4" stop-opacity="0.96"/>
<stop offset="1" stop-color="#E3E3E3"/>
</linearGradient>
<linearGradient id="paint4_linear_1_36350" x1="206.953" y1="107.321" x2="177.001" y2="107.321" gradientUnits="userSpaceOnUse">
<stop stop-color="white"/>
<stop offset="0.14" stop-color="#F7F7F7"/>
<stop offset="0.67" stop-color="#DFDFDF"/>
<stop offset="1" stop-color="#D6D6D6"/>
</linearGradient>
<linearGradient id="paint5_linear_1_36350" x1="168.667" y1="102.236" x2="168.667" y2="119.995" gradientUnits="userSpaceOnUse">
<stop stop-color="white"/>
<stop offset="0.38" stop-color="#FBFBFB"/>
<stop offset="0.76" stop-color="#EEEEEE"/>
<stop offset="1" stop-color="#E3E3E3"/>
</linearGradient>
<linearGradient id="paint6_linear_1_36350" x1="66.155" y1="124.558" x2="66.155" y2="123.297" gradientUnits="userSpaceOnUse">
<stop stop-color="white" stop-opacity="0"/>
<stop offset="1" stop-color="#D6D6D6"/>
</linearGradient>
<linearGradient id="paint7_linear_1_36350" x1="97.4382" y1="126.406" x2="97.4382" y2="144" gradientUnits="userSpaceOnUse">
<stop stop-color="#AAB6F2"/>
<stop offset="0.7" stop-color="#FEFEFE"/>
<stop offset="1" stop-color="#FEFEFE" stop-opacity="0.8"/>
</linearGradient>
<linearGradient id="paint8_linear_1_36350" x1="99.4913" y1="128.165" x2="99.4913" y2="136.962" gradientUnits="userSpaceOnUse">
<stop stop-color="#AAB6F2"/>
<stop offset="0.7" stop-color="#FEFEFE"/>
<stop offset="1" stop-color="#FEFEFE" stop-opacity="0.8"/>
</linearGradient>
<linearGradient id="paint9_linear_1_36350" x1="99.1979" y1="96.4946" x2="106.822" y2="96.4946" gradientUnits="userSpaceOnUse">
<stop stop-color="#AFBBF4"/>
<stop offset="1" stop-color="#D9DFFE"/>
</linearGradient>
<linearGradient id="paint10_linear_1_36350" x1="97.4201" y1="105.119" x2="108.582" y2="105.119" gradientUnits="userSpaceOnUse">
<stop stop-color="#8A99E4"/>
<stop offset="1" stop-color="#DAE0FE"/>
</linearGradient>
<linearGradient id="paint11_linear_1_36350" x1="118.716" y1="99.773" x2="118.716" y2="43.746" gradientUnits="userSpaceOnUse">
<stop stop-color="#AFBBF4"/>
<stop offset="1" stop-color="#EFF2FF"/>
</linearGradient>
<linearGradient id="paint12_linear_1_36350" x1="117.278" y1="100.618" x2="117.278" y2="45.7812" gradientUnits="userSpaceOnUse">
<stop stop-color="#DAE2FF"/>
<stop offset="1" stop-color="#AFBBF4"/>
</linearGradient>
<linearGradient id="paint13_linear_1_36350" x1="116.508" y1="85.3514" x2="116.508" y2="71.4048" gradientUnits="userSpaceOnUse">
<stop stop-color="#B7C2F6"/>
<stop offset="1" stop-color="#9CAAE8"/>
</linearGradient>
<linearGradient id="paint14_linear_1_36350" x1="114.098" y1="76.3706" x2="158.726" y2="31.7425" gradientUnits="userSpaceOnUse">
<stop stop-color="#AFBBF4"/>
<stop offset="1" stop-color="#ECEFFE"/>
</linearGradient>
<clipPath id="clip0_1_36350">
<rect width="252.664" height="106.547" fill="white" transform="translate(0.667908 26.9783)"/>
</clipPath>
<clipPath id="clip1_1_36350">
<rect width="101.316" height="144" fill="white" transform="translate(78.0843)"/>
</clipPath>
</defs>
</svg>
