<svg width="250" height="144" viewBox="0 0 250 144" fill="none" xmlns="http://www.w3.org/2000/svg">
<g clip-path="url(#clip0_1_36729)">
<path d="M154.433 56.6593C170.079 56.6593 182.763 43.9757 182.763 28.3297C182.763 12.6836 170.079 0 154.433 0C138.787 0 126.104 12.6836 126.104 28.3297C126.104 43.9757 138.787 56.6593 154.433 56.6593Z" fill="url(#paint0_linear_1_36729)"/>
<path d="M196.245 59.3392C205.831 59.3392 213.602 51.568 213.602 41.9818C213.602 32.3956 205.831 24.6244 196.245 24.6244C186.658 24.6244 178.887 32.3956 178.887 41.9818C178.887 51.568 186.658 59.3392 196.245 59.3392Z" fill="url(#paint1_linear_1_36729)"/>
<path d="M32.0087 71.9452C41.5949 71.9452 49.3661 64.1741 49.3661 54.5879C49.3661 45.0016 41.5949 37.2305 32.0087 37.2305C22.4225 37.2305 14.6513 45.0016 14.6513 54.5879C14.6513 64.1741 22.4225 71.9452 32.0087 71.9452Z" fill="url(#paint2_linear_1_36729)"/>
<path d="M55.9496 73.3057C61.9603 73.3057 66.833 68.4331 66.833 62.4223C66.833 56.4116 61.9603 51.5389 55.9496 51.5389C49.9388 51.5389 45.0662 56.4116 45.0662 62.4223C45.0662 68.4331 49.9388 73.3057 55.9496 73.3057Z" fill="url(#paint3_linear_1_36729)"/>
<path d="M178.887 61.4858C183.682 61.4858 187.569 57.5987 187.569 52.8037C187.569 48.0087 183.682 44.1216 178.887 44.1216C174.092 44.1216 170.205 48.0087 170.205 52.8037C170.205 57.5987 174.092 61.4858 178.887 61.4858Z" fill="url(#paint4_linear_1_36729)"/>
<path d="M125.003 144C193.866 144 249.691 130.508 249.691 113.866C249.691 97.2227 193.866 83.7311 125.003 83.7311C56.1403 83.7311 0.315796 97.2227 0.315796 113.866C0.315796 130.508 56.1403 144 125.003 144Z" fill="url(#paint5_linear_1_36729)"/>
<path d="M46.0233 113.852C48.451 113.852 50.4191 113.378 50.4191 112.792C50.4191 112.207 48.451 111.733 46.0233 111.733C43.5956 111.733 41.6276 112.207 41.6276 112.792C41.6276 113.378 43.5956 113.852 46.0233 113.852Z" fill="url(#paint6_linear_1_36729)"/>
<path d="M45.9071 109.415C46.9048 108.499 47.7027 107.387 48.2509 106.148C48.799 104.909 49.0857 103.571 49.0929 102.217C49.0929 97.6362 45.996 87.0194 45.8661 87.0194C45.7362 87.0194 42.9539 97.9575 42.9539 102.237C43.0377 104.908 44.0869 107.458 45.9071 109.415Z" fill="#D8DDE1"/>
<path d="M46.1808 108.506H45.9484L45.6339 111.972L46.4338 112.204L46.1808 108.506Z" fill="#C8CFD6"/>
<path d="M45.8663 91.7023C45.8663 91.7023 43.9863 97.8549 43.9863 100.036C43.9966 100.697 44.1385 101.349 44.4038 101.955C44.6691 102.561 45.0524 103.107 45.5313 103.563C46.2071 103.151 46.7561 102.56 47.1179 101.855C47.4797 101.151 47.6404 100.361 47.5822 99.5709C47.156 96.9172 46.5786 94.29 45.8526 91.7023" fill="#C8CFD6"/>
</g>
<g clip-path="url(#clip1_1_36729)">
<path fill-rule="evenodd" clip-rule="evenodd" d="M89.2522 117.926L87.8849 132.966L130.954 141.17L165.819 130.915L164.452 116.559L129.586 118.61L89.2522 117.926Z" fill="url(#paint7_linear_1_36729)"/>
<path fill-rule="evenodd" clip-rule="evenodd" d="M103.486 72.2666C103.486 73.0136 103.265 73.744 102.85 74.3654C102.436 74.9868 101.846 75.4713 101.156 75.7575C100.466 76.0437 99.7068 76.1189 98.9741 75.9735C98.2414 75.8281 97.5682 75.4687 97.0398 74.9407C96.5114 74.4127 96.1515 73.7397 96.0055 73.0071C95.8596 72.2745 95.9342 71.5151 96.22 70.8249C96.5057 70.1347 96.9897 69.5447 97.6108 69.1297C98.2319 68.7146 98.9621 68.4929 99.7091 68.4929C100.71 68.494 101.669 68.8919 102.377 69.5993C103.085 70.3067 103.484 71.2658 103.486 72.2666Z" fill="url(#paint8_linear_1_36729)"/>
<path fill-rule="evenodd" clip-rule="evenodd" d="M123.004 76.2249V108.896L161.674 107.754L163.941 79.3217L123.004 76.2249Z" fill="#8492D7"/>
<path fill-rule="evenodd" clip-rule="evenodd" d="M123.85 76.2249L89.7365 81.8443L91.4373 107.18L123.85 108.896V76.2249Z" fill="#98A6E7"/>
<path d="M91.3027 47.5123C91.3027 47.5123 120.385 51.9833 119.332 87.1629" stroke="#BBBBBB" stroke-width="0.683631"/>
<path d="M120.016 91.2441C115.776 84.4069 113.911 76.3614 114.711 68.3562C115.294 62.9008 116.805 57.6163 117.772 52.2293C118.543 47.9361 119.491 44.4496 117.853 39.131" stroke="#BBBBBB" stroke-width="0.683631"/>
<path d="M133.605 41.3528C133.605 41.3528 141.877 67.4197 115.222 95.4075" stroke="#BBBBBB" stroke-width="0.683631"/>
<path d="M146.677 39.9856C146.373 42.8705 146.267 45.8921 145.391 48.6745C144.479 51.2056 143.242 53.6071 141.71 55.8184C135.096 66.1549 117.279 71.6104 121.885 87.5869" stroke="#BBBBBB" stroke-width="0.683631"/>
<path fill-rule="evenodd" clip-rule="evenodd" d="M122.668 30.4215C122.313 34.4754 119.876 40.2795 119.751 40.5667C119.643 40.8288 119.454 41.0493 119.212 41.1955C118.963 41.3423 118.67 41.3979 118.385 41.3528C118.072 41.3254 111.744 40.5256 107.788 38.8439C106.444 38.1739 104.526 37.4835 103.386 35.6035C101.467 32.4383 101.922 29.1704 104.886 27.4613C106.532 26.5111 109.255 27.0103 111.056 27.7554C111.261 25.8413 112.117 23.2912 113.763 22.341C116.739 20.625 120.015 21.7325 121.934 24.8977C123.074 26.7777 122.73 28.9517 122.665 30.4215H122.668Z" fill="url(#paint9_linear_1_36729)"/>
<path fill-rule="evenodd" clip-rule="evenodd" d="M136.696 40.2726L135.704 39.1994C135.538 38.9867 135.417 38.7425 135.347 38.4817C135.277 38.2209 135.261 37.949 135.299 37.6818L135.615 36.2118C135.696 35.9943 135.707 35.757 135.646 35.5329C135.586 35.3088 135.456 35.1092 135.277 34.9622C135.097 34.8153 134.876 34.7282 134.644 34.7132C134.412 34.6983 134.182 34.7561 133.985 34.8788L132.682 35.5008C132.437 35.5887 132.177 35.6245 131.918 35.6057C131.659 35.5868 131.407 35.5139 131.178 35.3915L129.814 34.6805C129.616 34.5738 129.391 34.525 129.167 34.5395C128.942 34.554 128.726 34.6314 128.543 34.7626C128.364 34.911 128.229 35.105 128.152 35.3241C128.075 35.5432 128.058 35.779 128.104 36.0067L128.283 37.4835C128.296 37.7554 128.255 38.0271 128.162 38.2829C128.069 38.5388 127.926 38.7735 127.742 38.9737L126.648 39.9855C126.482 40.1176 126.352 40.2881 126.267 40.4824C126.182 40.6766 126.147 40.8887 126.163 41.0999C126.206 41.3523 126.332 41.5831 126.52 41.7563C126.709 41.9295 126.949 42.0353 127.205 42.0569L128.635 42.3098C128.889 42.3827 129.126 42.5056 129.332 42.6711C129.538 42.8366 129.709 43.0415 129.835 43.2738L130.415 44.6274C130.526 44.9266 130.738 45.1779 131.014 45.3384C131.154 45.4013 131.306 45.4343 131.46 45.4354C131.615 45.4364 131.767 45.4053 131.909 45.3442C132.05 45.2832 132.177 45.1933 132.282 45.0805C132.387 44.9677 132.467 44.8344 132.518 44.689L133.219 43.3763C133.362 43.1479 133.549 42.9509 133.77 42.797C133.99 42.643 134.24 42.5354 134.504 42.4807L135.952 42.3098C136.19 42.3112 136.422 42.2393 136.617 42.1038C136.811 41.9683 136.96 41.776 137.041 41.553C137.123 41.3301 137.133 41.0874 137.071 40.8582C137.01 40.629 136.878 40.4244 136.696 40.2726Z" fill="url(#paint10_linear_1_36729)"/>
<path fill-rule="evenodd" clip-rule="evenodd" d="M90.3938 52.4209L90.7356 51.0059C90.819 50.7487 90.9539 50.5111 91.1321 50.3077C91.3103 50.1044 91.528 49.9395 91.772 49.823L93.17 49.2626C93.3954 49.2091 93.5985 49.0864 93.7507 48.9117C93.9029 48.7371 93.9967 48.5192 94.0189 48.2885C94.041 48.0579 93.9905 47.8261 93.8743 47.6256C93.7581 47.4251 93.5821 47.2661 93.371 47.1706L92.1275 46.4323C91.9187 46.2774 91.7446 46.0808 91.6163 45.8548C91.488 45.6287 91.4083 45.3783 91.3823 45.1197L91.2155 43.5952C91.1943 43.3704 91.1101 43.1562 90.9724 42.9772C90.8348 42.7982 90.6494 42.6617 90.4376 42.5835C90.2149 42.5167 89.9782 42.512 89.753 42.5698C89.5279 42.6276 89.3228 42.7458 89.1598 42.9116L88.0305 43.8823C87.8128 44.0448 87.5646 44.1619 87.3006 44.2265C87.0367 44.2911 86.7625 44.3019 86.4944 44.2584L85.0464 43.9165C84.8444 43.8517 84.6295 43.8378 84.4208 43.876C84.2121 43.9141 84.0161 44.0032 83.8501 44.1353C83.6652 44.3114 83.544 44.5439 83.5055 44.7963C83.467 45.0487 83.5134 45.3068 83.6375 45.53L84.2192 46.863C84.3004 47.1141 84.3307 47.3789 84.3084 47.6418C84.2861 47.9047 84.2116 48.1605 84.0893 48.3944L83.2827 49.6318C83.0989 49.8902 83.0098 50.2039 83.0304 50.5203C83.0557 50.6716 83.1121 50.816 83.1962 50.9443C83.2802 51.0725 83.39 51.182 83.5186 51.2656C83.6471 51.3491 83.7917 51.4051 83.943 51.4298C84.0944 51.4545 84.2492 51.4474 84.3977 51.4091L85.8846 51.2587C86.1534 51.2516 86.421 51.2987 86.6712 51.3974C86.9214 51.4961 87.1491 51.6443 87.3407 51.833L88.2903 52.9404C88.4291 53.1287 88.6181 53.2742 88.8358 53.36C89.0534 53.4459 89.2908 53.4686 89.5208 53.4258C89.7455 53.3563 89.9463 53.2255 90.1006 53.0479C90.2548 52.8703 90.3564 52.6531 90.3938 52.4209Z" fill="url(#paint11_linear_1_36729)"/>
<path fill-rule="evenodd" clip-rule="evenodd" d="M159.285 18.2187L155.655 18.8136C154.98 18.8643 154.302 18.7777 153.661 18.5592C153.021 18.3407 152.431 17.9946 151.928 17.5419L149.317 14.8142C147.385 12.7975 144.627 13.5837 144.249 16.3866L143.705 20.0168C143.542 20.6552 143.249 21.253 142.844 21.7729C142.439 22.2928 141.931 22.7236 141.352 23.0383L137.948 24.9252C137.444 25.1957 137.026 25.6015 136.741 26.0967C136.455 26.5918 136.314 27.1568 136.332 27.7281C136.384 28.3103 136.595 28.8671 136.941 29.3382C137.287 29.8094 137.755 30.1768 138.295 30.4011L141.622 32.0896C142.206 32.4451 142.712 32.9137 143.111 33.4679C143.51 34.0221 143.794 34.6506 143.947 35.3163L144.513 39.0423C144.552 39.5739 144.721 40.0877 145.006 40.5384C145.291 40.989 145.682 41.3626 146.145 41.6262C147.232 42.18 148.528 41.8725 149.597 40.7582L152.15 38.0988C152.655 37.6646 153.241 37.3357 153.874 37.1314C154.508 36.9271 155.175 36.8516 155.838 36.9092L159.479 37.586C160.258 37.7636 161.074 37.6671 161.79 37.3126C162.911 36.6905 163.585 35.1934 162.573 33.2314L160.822 29.902C160.551 29.2772 160.408 28.6046 160.401 27.9237C160.394 27.2428 160.522 26.5674 160.78 25.9369L162.465 22.6351C162.775 22.1305 162.937 21.5485 162.932 20.9561C162.927 20.3636 162.755 19.7845 162.436 19.2852C162.067 18.8264 161.574 18.4824 161.016 18.2935C160.457 18.1046 159.857 18.0787 159.285 18.2187Z" fill="url(#paint12_linear_1_36729)"/>
<path fill-rule="evenodd" clip-rule="evenodd" d="M89.244 118.487V82.3639L122.895 84.6678L130.278 85.1737V129.555L89.244 118.487Z" fill="#AFBBF4"/>
<path fill-rule="evenodd" clip-rule="evenodd" d="M164.451 79.6498L130.27 85.0641V129.541L164.451 116.183V79.6498Z" fill="#98A6E7"/>
<path fill-rule="evenodd" clip-rule="evenodd" d="M164.452 79.6429L129.984 84.3327L134.372 103.57L170.604 94.6828L164.452 79.6429Z" fill="#C2CBF6"/>
<path fill-rule="evenodd" clip-rule="evenodd" d="M89.2521 81.7144L83.7831 96.0501L125.485 104.937L130.688 84.5036L89.2521 81.7144Z" fill="#C2CBF6"/>
<path fill-rule="evenodd" clip-rule="evenodd" d="M108.394 109.723V123.395L100.874 121.344V108.355L108.394 109.723Z" fill="#BCC6F5"/>
<path fill-rule="evenodd" clip-rule="evenodd" d="M122.75 109.723V127.497L115.23 125.446V108.355L122.75 109.723Z" fill="#BCC6F5"/>
<path fill-rule="evenodd" clip-rule="evenodd" d="M144.626 115.875V124.079L152.146 121.344V113.141L144.626 115.875Z" fill="#BCC6F5"/>
<path fill-rule="evenodd" clip-rule="evenodd" d="M146.659 75.4659C146.658 76.5464 146.337 77.6025 145.736 78.5005C145.135 79.3984 144.281 80.098 143.283 80.5108C142.284 80.9237 141.186 81.0313 140.126 80.8199C139.066 80.6085 138.093 80.0877 137.33 79.3233C136.566 78.5589 136.046 77.5852 135.835 76.5254C135.625 75.4655 135.733 74.3671 136.147 73.3689C136.561 72.3707 137.261 71.5177 138.16 70.9175C139.058 70.3172 140.115 69.9968 141.195 69.9968C141.913 69.9968 142.624 70.1383 143.287 70.4132C143.951 70.6882 144.553 71.0912 145.061 71.5991C145.568 72.107 145.97 72.7099 146.245 73.3734C146.519 74.0369 146.66 74.7479 146.659 75.4659Z" fill="url(#paint13_linear_1_36729)"/>
</g>
<defs>
<linearGradient id="paint0_linear_1_36729" x1="154.433" y1="56.6593" x2="154.433" y2="0" gradientUnits="userSpaceOnUse">
<stop stop-color="white" stop-opacity="0"/>
<stop offset="1" stop-color="#E3E3E3"/>
</linearGradient>
<linearGradient id="paint1_linear_1_36729" x1="196.245" y1="59.3392" x2="196.245" y2="24.6244" gradientUnits="userSpaceOnUse">
<stop stop-color="white" stop-opacity="0"/>
<stop offset="1" stop-color="#E3E3E3"/>
</linearGradient>
<linearGradient id="paint2_linear_1_36729" x1="32.0087" y1="71.9452" x2="32.0087" y2="37.2236" gradientUnits="userSpaceOnUse">
<stop stop-color="white" stop-opacity="0"/>
<stop offset="1" stop-color="#E3E3E3"/>
</linearGradient>
<linearGradient id="paint3_linear_1_36729" x1="55.9496" y1="73.3057" x2="55.9496" y2="51.5389" gradientUnits="userSpaceOnUse">
<stop stop-color="white" stop-opacity="0"/>
<stop offset="1" stop-color="#E3E3E3"/>
</linearGradient>
<linearGradient id="paint4_linear_1_36729" x1="178.887" y1="61.479" x2="178.887" y2="44.1216" gradientUnits="userSpaceOnUse">
<stop stop-color="white" stop-opacity="0"/>
<stop offset="0.06" stop-color="#FAFAFA" stop-opacity="0.18"/>
<stop offset="0.14" stop-color="#F5F5F5" stop-opacity="0.37"/>
<stop offset="0.22" stop-color="#F0F0F0" stop-opacity="0.54"/>
<stop offset="0.31" stop-color="#ECECEC" stop-opacity="0.68"/>
<stop offset="0.4" stop-color="#E9E9E9" stop-opacity="0.8"/>
<stop offset="0.51" stop-color="#E6E6E6" stop-opacity="0.89"/>
<stop offset="0.62" stop-color="#E4E4E4" stop-opacity="0.95"/>
<stop offset="0.76" stop-color="#E3E3E3" stop-opacity="0.99"/>
<stop offset="1" stop-color="#E3E3E3"/>
</linearGradient>
<linearGradient id="paint5_linear_1_36729" x1="125.003" y1="144" x2="125.003" y2="83.7311" gradientUnits="userSpaceOnUse">
<stop stop-color="white" stop-opacity="0"/>
<stop offset="0.13" stop-color="#FEFEFE" stop-opacity="0.02"/>
<stop offset="0.26" stop-color="#FDFDFD" stop-opacity="0.07"/>
<stop offset="0.4" stop-color="#FAFAFA" stop-opacity="0.16"/>
<stop offset="0.53" stop-color="#F7F7F7" stop-opacity="0.29"/>
<stop offset="0.67" stop-color="#F2F2F2" stop-opacity="0.46"/>
<stop offset="0.81" stop-color="#EDEDED" stop-opacity="0.66"/>
<stop offset="0.94" stop-color="#E6E6E6" stop-opacity="0.9"/>
<stop offset="1" stop-color="#E3E3E3"/>
</linearGradient>
<linearGradient id="paint6_linear_1_36729" x1="46.0233" y1="113.859" x2="46.0233" y2="111.733" gradientUnits="userSpaceOnUse">
<stop stop-color="white" stop-opacity="0"/>
<stop offset="1" stop-color="#D6D6D6"/>
</linearGradient>
<linearGradient id="paint7_linear_1_36729" x1="126.852" y1="141.17" x2="126.852" y2="116.559" gradientUnits="userSpaceOnUse">
<stop stop-color="white" stop-opacity="0"/>
<stop offset="1" stop-color="#E4E7F9"/>
</linearGradient>
<linearGradient id="paint8_linear_1_36729" x1="99.7098" y1="76.0539" x2="99.7098" y2="68.4929" gradientUnits="userSpaceOnUse">
<stop stop-color="#AFBBF4"/>
<stop offset="1" stop-color="white"/>
</linearGradient>
<linearGradient id="paint9_linear_1_36729" x1="112.496" y1="41.3596" x2="112.496" y2="21.5343" gradientUnits="userSpaceOnUse">
<stop stop-color="#909DDD"/>
<stop offset="1" stop-color="#DFE5FF"/>
</linearGradient>
<linearGradient id="paint10_linear_1_36729" x1="131.637" y1="45.4409" x2="131.637" y2="34.5438" gradientUnits="userSpaceOnUse">
<stop stop-color="#94A1DE"/>
<stop offset="1" stop-color="#DCE2FE"/>
</linearGradient>
<linearGradient id="paint11_linear_1_36729" x1="88.5364" y1="53.4531" x2="88.5364" y2="42.5151" gradientUnits="userSpaceOnUse">
<stop stop-color="#94A1DE"/>
<stop offset="1" stop-color="#DCE2FE"/>
</linearGradient>
<linearGradient id="paint12_linear_1_36729" x1="149.7" y1="41.8929" x2="149.7" y2="13.6726" gradientUnits="userSpaceOnUse">
<stop stop-color="#8E9EE7"/>
<stop offset="1" stop-color="#E5E9FF"/>
</linearGradient>
<linearGradient id="paint13_linear_1_36729" x1="141.198" y1="80.9282" x2="141.198" y2="70.0105" gradientUnits="userSpaceOnUse">
<stop stop-color="#AFBBF4"/>
<stop offset="1" stop-color="white"/>
</linearGradient>
<clipPath id="clip0_1_36729">
<rect width="249.368" height="144" fill="white" transform="translate(0.315979)"/>
</clipPath>
<clipPath id="clip1_1_36729">
<rect width="87.569" height="127.497" fill="white" transform="translate(83.0349 13.6726)"/>
</clipPath>
</defs>
</svg>
