<svg width="33" height="32" viewBox="0 0 33 32" fill="none" xmlns="http://www.w3.org/2000/svg">
<path d="M32.1011 0C32.1011 2.94313 30.9063 5.60918 28.9745 7.54131C27.0866 9.42851 24.4875 10.6192 21.6148 10.6642H0L10.7151 0H32.1011Z" fill="#2563EB"/>
<path d="M32.133 21.2535L21.3351 32H0.483049V31.9776L0.476685 31.9738V31.9364C0.476685 31.5657 0.559436 28.9745 2.11638 26.4882C2.91057 25.2226 4.06723 23.9832 5.80877 23.0246C7.4039 22.1484 10.7675 21.3321 13.5369 21.3471L13.4545 24.8856L17.636 20.8903L13.6388 16.7077L13.626 17.2806L13.556 20.2874C12.6836 20.2574 11.3408 20.2724 9.8127 20.572L0.946985 11.7388H22.5745L32.133 21.2535Z" fill="#2563EB"/>
</svg>
