<svg viewBox="0 0 185 32" fill="none" xmlns="http://www.w3.org/2000/svg">
<path d="M32.1011 0C32.1011 2.94313 30.9063 5.60918 28.9745 7.54131C27.0866 9.42851 24.4875 10.6192 21.6148 10.6642H0L10.7151 0H32.1011Z" fill="#2563EB"/>
<path d="M32.133 21.2535L21.3351 32H0.483049V31.9776L0.476685 31.9738V31.9364C0.476685 31.5657 0.559436 28.9745 2.11638 26.4882C2.91057 25.2226 4.06723 23.9832 5.80877 23.0246C7.4039 22.1484 10.7675 21.3321 13.5369 21.3471L13.4545 24.8856L17.636 20.8903L13.6388 16.7077L13.626 17.2806L13.556 20.2874C12.6836 20.2574 11.3408 20.2724 9.8127 20.572L0.946985 11.7388H22.5745L32.133 21.2535Z" fill="#2563EB"/>
<path d="M53.8856 13.7392H56.6106C59.2718 13.7392 61.2358 14.297 62.5021 15.4075C63.768 16.5179 64.4014 18.0866 64.4014 20.1133C64.4014 22.1401 63.7406 23.6938 62.4195 24.7644C61.0978 25.84 59.1617 26.3779 56.6106 26.3779H46.7003C46.278 26.3779 46.0764 26.1637 46.0948 25.7454V22.4937C46.0948 22.0754 46.2965 21.8612 46.7003 21.8612H56.6106C58.2439 21.8612 59.0606 21.2836 59.0606 20.1283C59.0606 18.8784 58.2439 18.2559 56.6106 18.2559H53.8856C51.2239 18.2559 49.2604 17.7031 47.9941 16.5877C46.7277 15.4772 46.0948 13.9085 46.0948 11.8817C46.0948 9.85497 46.7551 8.30628 48.0767 7.23065C49.3984 6.15502 51.334 5.62219 53.8856 5.62219H63.2177C63.6395 5.62219 63.8507 5.83135 63.8507 6.25463V9.5313C63.8507 9.9496 63.6395 10.1538 63.2177 10.1338H53.8856C52.2518 10.1338 51.4351 10.7215 51.4351 11.8967C51.4351 13.1267 52.2518 13.7392 53.8856 13.7392Z" fill="#2563EB"/>
<path d="M81.7998 5.62219H85.6536C86.0759 5.62219 86.2771 5.83135 86.2597 6.25463V25.7454C86.2597 26.1637 86.0575 26.3779 85.6536 26.3779H81.7998C81.377 26.3779 81.1753 26.1637 81.1942 25.7454V18.2559H73.2933V25.7454C73.2933 26.1637 73.0911 26.3779 72.6878 26.3779H68.8334C68.4111 26.3779 68.2095 26.1637 68.2284 25.7454V6.25463C68.2284 5.83135 68.4301 5.62219 68.8334 5.62219H72.6878C73.1096 5.62219 73.3112 5.83135 73.2933 6.25463V13.7392H81.1942V6.25463C81.1753 5.83135 81.377 5.62219 81.7998 5.62219Z" fill="#2563EB"/>
<path d="M91.0765 5.62219H94.9309C95.3527 5.62219 95.5544 5.83135 95.5364 6.25463V25.7454C95.5364 26.1637 95.3342 26.3779 94.9309 26.3779H91.0765C90.6543 26.3779 90.4526 26.1637 90.471 25.7454V6.25463C90.4526 5.83135 90.6543 5.62219 91.0765 5.62219Z" fill="#2563EB"/>
<path d="M104.813 10.1338V15.7211H111.09C112.54 15.7211 113.265 14.7899 113.265 12.9275C113.265 11.065 112.54 10.1338 111.09 10.1338H104.813ZM118.357 13.1217C118.357 15.0588 117.743 16.7271 116.513 18.1314C115.284 19.5357 113.476 20.2378 111.09 20.2378H104.813V25.7454C104.813 26.1637 104.612 26.3779 104.208 26.3779H100.354C99.9316 26.3779 99.7299 26.1637 99.7483 25.7454V6.25463C99.7483 5.83135 99.95 5.62219 100.354 5.62219H111.09C113.402 5.62219 115.192 6.38409 116.458 7.91786C117.724 9.45163 118.357 11.1846 118.357 13.1217Z" fill="#2563EB"/>
<path d="M127.029 10.1338V15.7211H133.306C134.756 15.7211 135.481 14.7899 135.481 12.9275C135.481 11.065 134.756 10.1338 133.306 10.1338H127.029ZM140.573 13.1217C140.573 15.0588 139.958 16.7271 138.728 18.1314C137.499 19.5357 135.691 20.2378 133.306 20.2378H127.029V25.7454C127.029 26.1637 126.827 26.3779 126.423 26.3779H122.57C122.147 26.3779 121.946 26.1637 121.964 25.7454V6.25463C121.964 5.83135 122.166 5.62219 122.57 5.62219H133.306C135.618 5.62219 137.408 6.38409 138.674 7.91786C139.94 9.45163 140.573 11.1846 140.573 13.1217Z" fill="#2563EB"/>
<path d="M149.245 18.2559V21.8612H161.248C161.67 21.8612 161.881 22.0754 161.881 22.4937V25.7454C161.881 26.1637 161.67 26.3779 161.248 26.3779H144.785C144.363 26.3779 144.161 26.1637 144.18 25.7454V6.25463C144.18 5.83135 144.382 5.62219 144.785 5.62219H160.972C161.394 5.62219 161.606 5.83135 161.606 6.25463V9.5313C161.606 9.9496 161.394 10.1538 160.972 10.1338H149.245V13.7392H160.119C160.541 13.7392 160.752 13.9533 160.752 14.3766V17.6484C160.752 18.0716 160.541 18.2758 160.119 18.2559H149.245Z" fill="#2563EB"/>
<path d="M180.05 15.9153C180.747 16.1195 181.362 16.3934 181.894 16.742C183.656 17.7878 184.546 20.5665 184.564 25.0831V25.7454C184.546 26.1637 184.334 26.3779 183.931 26.3779H180.105C179.683 26.3579 179.472 26.1488 179.472 25.7454V25.0831C179.472 22.1451 179.022 20.2727 178.123 19.4659C177.352 18.7688 176.306 18.3754 174.984 18.2857C173.645 18.3754 172.589 18.7688 171.819 19.4659C170.919 20.2727 170.47 22.1451 170.47 25.0831V25.7454C170.47 26.1488 170.258 26.3579 169.837 26.3779H166.01C165.606 26.3779 165.395 26.1637 165.377 25.7454V25.0831C165.377 20.5665 166.267 17.7878 168.047 16.742C168.598 16.4133 169.212 16.1345 169.891 15.9153C167.267 14.4662 165.955 11.4634 165.955 6.91194V6.25463C165.955 5.83135 166.157 5.62219 166.561 5.62219H170.414C170.837 5.62219 171.038 5.83135 171.02 6.25463V6.91194C171.02 10.0343 171.314 11.9266 171.901 12.5989C172.488 13.2661 173.516 13.6396 174.984 13.7143C176.452 13.6396 177.476 13.2661 178.054 12.5989C178.632 11.9266 178.921 10.0343 178.921 6.91194V6.25463C178.921 5.83135 179.123 5.62219 179.526 5.62219H183.381C183.802 5.62219 184.004 5.83135 183.986 6.25463V6.91194C183.986 11.4634 182.673 14.4662 180.05 15.9153Z" fill="#2563EB"/>
</svg>
